<svg width="112" height="32" viewBox="0 0 112 32" fill="none" xmlns="http://www.w3.org/2000/svg">
<path d="M38.2161 27.8003L39.8415 30.4355C38.7579 31.3221 37.4034 31.9871 34.7435 31.9871C30.3598 31.9871 28.1187 29.5243 28.1187 24.7218C28.1187 20.2149 30.6307 17.5305 34.645 17.5305C38.1915 17.5305 40.2356 19.7716 40.2356 23.1703C40.2356 23.8845 40.2109 24.5741 40.0632 25.6577H31.7636C31.8128 27.8496 32.7979 29.0563 35.1622 29.0563C36.6645 29.0563 37.6989 28.3421 38.2161 27.8003ZM34.5465 20.3381C32.8718 20.3381 31.8867 21.5695 31.8375 23.1949H36.7384V22.8255C36.7384 21.2001 36.0488 20.3381 34.5465 20.3381Z" fill="#091908"/>
<path d="M45.3899 17.8014L47.2863 24.4509C47.8034 26.2734 48.0005 27.1354 48.1975 28.219H48.296C48.4438 27.1846 48.6408 26.2734 49.1333 24.4509L50.9312 17.8014H54.65L50.2662 31.7162H46.1041L41.3756 17.8014H45.3899Z" fill="#091908"/>
<path d="M60.2117 28.6377V28.7362H66.3932V31.7162H56.1973L55.7048 28.9332L61.6647 20.8799V20.7814H56.0495V17.8014H65.5805L66.0731 20.609L60.2117 28.6377Z" fill="#091908"/>
<path d="M69.0003 31.7162V17.8014H72.7191V31.7162H69.0003ZM68.6802 14.1811C68.6802 12.9005 69.616 11.9646 70.7982 11.9646C72.0542 11.9646 72.9901 12.9005 72.9901 14.1811C72.9901 15.3386 72.0542 16.2745 70.7982 16.2745C69.616 16.2745 68.6802 15.3386 68.6802 14.1811Z" fill="#091908"/>
<path d="M76.1651 13.0482H79.8839V27.3324C79.8839 28.3668 80.3519 28.7116 81.0414 28.7116C81.3124 28.7116 81.4355 28.6869 81.5586 28.6623V31.593C81.1153 31.7654 80.5981 31.9378 79.7854 31.9378C77.5197 31.9378 76.1651 30.6079 76.1651 28.2929V13.0482Z" fill="#091908"/>
<path d="M83.9094 13.0482H87.6282V27.3324C87.6282 28.3668 88.0962 28.7116 88.7858 28.7116C89.0567 28.7116 89.1798 28.6869 89.3029 28.6623V31.593C88.8596 31.7654 88.3425 31.9378 87.5297 31.9378C85.264 31.9378 83.9094 30.6079 83.9094 28.2929V13.0482Z" fill="#091908"/>
<path d="M98.1555 28.1205V26.1503C95.7173 25.9779 94.5106 26.5443 94.5106 27.7511C94.5106 28.5392 95.0524 29.1056 96.0129 29.1056C96.9241 29.1056 97.7368 28.6869 98.1555 28.1205ZM96.136 17.5551C99.6824 17.5551 101.653 18.7865 101.653 22.1605V27.7264C101.653 28.5145 101.948 28.8593 102.613 28.8593H103.007V31.4206C102.416 31.79 101.776 31.8885 101.16 31.8885C99.8302 31.8885 99.0667 31.2482 98.6481 30.3862H98.5495C98.0324 31.0758 96.998 31.9378 95.0031 31.9378C92.2941 31.9378 90.8903 30.0907 90.8903 28.0959C90.8903 24.8942 93.7717 23.4166 98.1555 23.6382V22.5546C98.1555 21.003 97.2935 20.5351 96.1606 20.5351C94.8307 20.5351 94.1165 21.2986 93.7717 22.1113L91.1366 20.1657C91.6784 19.4022 93.0575 17.5551 96.136 17.5551Z" fill="#091908"/>
<path d="M1.96587 9.5381C1.96587 7.44709 3.66097 5.75198 5.75198 5.75198H18.2753C20.3663 5.75198 22.0614 7.44709 22.0614 9.5381V22.9351C22.0614 25.0261 20.3663 26.7212 18.2753 26.7212H5.75198C3.66097 26.7212 1.96587 25.0261 1.96587 22.9351V9.5381Z" fill="#43ED25"/>
<path d="M15.0039 20.1045L15.0449 20.1253L14.8175 20.0105L14.8176 20.0102L15.0039 20.1045Z" fill="#091908"/>
<path d="M6.91566 11.3874C6.65992 11.1185 6.90693 10.681 7.26926 10.7611L9.62684 11.2828L9.64163 11.2864C9.94445 11.3654 10.0226 11.7615 9.77246 11.9496L9.76016 11.9585L8.63971 12.7373C8.49215 12.8398 8.29345 12.8232 8.16495 12.6999L8.15279 12.6877L6.91566 11.3874Z" fill="#091908"/>
<path fill-rule="evenodd" clip-rule="evenodd" d="M9.89767 0C20.2493 3.46323e-07 24.9257 5.04324 24.9257 15.2205C24.9257 23.3533 21.7022 31.8495 9.98847 31.8495H2.32992C1.04315 31.8495 0 30.8064 0 29.5196V2.32992C2.4219e-07 1.04315 1.04315 1.69385e-05 2.32992 0H9.89767ZM7.68202 6.5893C5.14834 6.58931 3.09442 8.64329 3.09442 11.177V20.6722C3.09442 23.2059 5.14834 25.2598 7.68202 25.2599H17.1773C19.6176 25.2599 21.6126 23.3547 21.7565 20.9504L21.7572 20.9321C21.7573 20.92 21.757 20.9078 21.756 20.8958L21.7542 20.8779L21.3718 17.7717L21.3696 17.7562C21.319 17.4398 20.9324 17.3087 20.6998 17.5291L20.6886 17.5401L19.081 19.1775L17.0759 16.7862L17.0581 16.7663C16.8757 16.5751 16.5589 16.6116 16.4247 16.8392L16.4118 16.8626L14.9329 19.7825L13.0444 18.2905L13.0319 18.281C12.9059 18.1893 12.738 18.179 12.6017 18.2547L12.5882 18.2625L9.39248 20.2041L7.3816 17.2003H9.7465C9.92008 17.2003 10.0739 17.0885 10.1274 16.9234L11.2268 13.5324L13.8847 15.3444C14.1505 15.5256 14.5107 15.3352 14.5107 15.0135V12.0455L17.3315 13.7449L17.3535 13.7573C17.5832 13.8772 17.8686 13.7492 17.9282 13.4924L18.4985 11.0342L19.9921 12.1382C20.2688 12.3427 20.6546 12.1262 20.6296 11.788L20.6281 11.7718L20.1878 7.82294L20.1843 7.79855C20.1807 7.77732 20.1748 7.75393 20.1655 7.72944L20.1595 7.71465C20.0706 7.50931 19.881 7.34743 19.6784 7.22205C19.4688 7.09228 19.21 6.97998 18.9337 6.88793C18.382 6.7041 17.7254 6.5893 17.1773 6.5893H7.68202Z" fill="#091908"/>
</svg>
